<?xml version="1.0" encoding="utf-8"?>
<!-- Generator: Adobe Illustrator 24.0.0, SVG Export Plug-In . SVG Version: 6.00 Build 0)  -->
<svg version="1.1" id="Layer_1" xmlns="http://www.w3.org/2000/svg" xmlns:xlink="http://www.w3.org/1999/xlink" x="0px" y="0px"
	 viewBox="0 0 800 600" style="enable-background:new 0 0 800 600;" xml:space="preserve">
<style type="text/css">
	.st0{fill-rule:evenodd;clip-rule:evenodd;fill:#1D1D1B;}
	.st1{fill-rule:evenodd;clip-rule:evenodd;fill:#E20613;}
</style>
<g>
	<path class="st0" d="M218.9,309.9l-25.4-54.6h15l17.2,39.7l17.2-39.7h14.6l-25,54.6v32.2h-13.7V309.9L218.9,309.9z M336.2,255.3
		h14.6v37.4l27-37.4h18.2l-32.8,42.6l32.8,44.2h-18.2l-27-38v38h-14.6V255.3L336.2,255.3z M470.5,255.3h15v35.4h27.3v-35.4h14.6
		v86.8h-14.6v-37.4h-27.3v37.4h-15V255.3L470.5,255.3z M577.1,304.7l-9.4-27l-9.4,27H577.1L577.1,304.7z M562.2,255.3h10.4
		l33.2,86.8h-15.3l-9.1-23.4h-27l-9.4,23.4h-15L562.2,255.3L562.2,255.3z M654.8,342.1l22.4-55.3v55.3h14v-86.8h-14.6l-27,62.1
		L623,255.3h-14.6v86.8h14v-55.3l22.4,55.3H654.8L654.8,342.1z M741,304.7l-9.1-27l-9.4,27H741L741,304.7z M726.3,255.3h10.4
		l33.2,86.8h-15.3l-9.1-23.4h-27.3l-9.1,23.4h-15L726.3,255.3L726.3,255.3z M289.1,329.1L289.1,329.1c-16.6,0-29.9-13.3-29.9-29.9
		c0-16.3,13.3-29.6,29.9-29.6c16.6,0,29.9,13.3,29.9,29.6C319,315.8,305.7,329.1,289.1,329.1L289.1,329.1z M289.1,254.7
		c-24.7,0-44.5,20.2-44.5,44.5c0,24.7,19.8,44.9,44.5,44.9c24.7,0,44.5-20.2,44.5-44.9C333.6,274.8,313.8,254.7,289.1,254.7
		L289.1,254.7z M423.4,329.1L423.4,329.1c-16.6,0-29.9-13.3-29.9-29.9c0-16.3,13.3-29.6,29.9-29.6c16.6,0,29.9,13.3,29.9,29.6
		C453.3,315.8,439.9,329.1,423.4,329.1L423.4,329.1z M423.4,254.7c-24.4,0-44.5,20.2-44.5,44.5c0,24.7,20.2,44.9,44.5,44.9
		c24.7,0,44.5-20.2,44.5-44.9C467.9,274.8,448.1,254.7,423.4,254.7L423.4,254.7z"/>
	<polygon class="st1" points="140.6,299.9 95.4,254.7 87.4,254.7 132.7,299.9 88.6,344.1 96.7,344.1 140.6,299.9 	"/>
	<polygon class="st1" points="126.4,299.9 81.3,254.7 73.2,254.7 118.4,299.9 74.5,344.1 82.5,344.1 126.4,299.9 	"/>
	<polygon class="st1" points="112.3,299.9 67.1,254.7 59.1,254.7 104.4,299.9 60.3,344.1 68.4,344.1 112.3,299.9 	"/>
	<polygon class="st1" points="98.1,299.9 53,254.7 44.9,254.7 90.2,299.9 46.2,344.1 54.2,344.1 98.1,299.9 	"/>
	<polygon class="st1" points="84,299.9 38.8,254.7 30.9,254.7 75.9,299.9 32,344.1 39.9,344.1 84,299.9 	"/>
	<polygon class="st1" points="140.4,300.2 185.9,254.7 177.7,254.7 136.5,296.1 140.4,300.2 	"/>
	<polygon class="st1" points="133.6,292.9 171.6,254.7 163.7,254.7 129.5,288.9 133.6,292.9 	"/>
	<polygon class="st1" points="126.6,285.9 157.6,254.7 149.5,254.7 122.5,281.8 126.6,285.9 	"/>
	<polygon class="st1" points="119.3,278.7 143.3,254.7 135.4,254.7 115.5,274.8 119.3,278.7 	"/>
	<polygon class="st1" points="112.3,271.7 129.1,254.7 121.2,254.7 108.3,267.6 112.3,271.7 	"/>
</g>
</svg>
